<svg xmlns="http://www.w3.org/2000/svg" width="24.132" height="24.132" viewBox="0 0 24.132 24.132">
    <defs>
        <style>
            .prefix__cls-2{fill:#31aa52}.prefix__cls-4{fill:#eb4132}
        </style>
    </defs>
    <g id="prefix___2702602" data-name="2702602">
        <path id="prefix__Path_253" d="M5.656 107.557a6.371 6.371 0 0 1 .9-3.275v-4.068H2.49a12.072 12.072 0 0 0 0 14.685h4.068v-4.068a6.371 6.371 0 0 1-.902-3.274z" data-name="Path 253" transform="translate(0 -95.492)" style="fill:#fbbd00"/>
        <path id="prefix__Path_254" d="M198.828 373.858L196 376.686l2.828 2.828a11.974 11.974 0 0 0 7.342-2.49v-4.064h-4.064a6.409 6.409 0 0 1-3.278.898z" class="prefix__cls-2" data-name="Path 254" transform="translate(-186.762 -355.383)"/>
        <path id="prefix__Path_255" d="M56.891 325.477l-4.068 4.068a12.263 12.263 0 0 0 1.044 1.189 11.987 11.987 0 0 0 8.532 3.534v-5.656a6.413 6.413 0 0 1-5.508-3.135z" class="prefix__cls-2" data-name="Path 255" transform="translate(-50.333 -310.137)"/>
        <path id="prefix__Path_256" d="M268.066 200.089a12.173 12.173 0 0 0-.2-2.186l-.106-.58H256v5.656h5.724a6.381 6.381 0 0 1-2.445 2.622l4.064 4.064a12.254 12.254 0 0 0 1.189-1.044 11.987 11.987 0 0 0 3.534-8.532z" data-name="Path 256" transform="translate(-243.934 -188.024)" style="fill:#3c79e6"/>
        <path id="prefix__Path_257" d="M203.36 7.533l.5.5 4-4-.5-.5A11.987 11.987 0 0 0 198.828 0L196 2.828l2.828 2.828a6.368 6.368 0 0 1 4.532 1.877z" class="prefix__cls-4" data-name="Path 257" transform="translate(-186.762)"/>
        <path id="prefix__Path_258" d="M62.4 5.656V0a11.987 11.987 0 0 0-8.532 3.534 12.249 12.249 0 0 0-1.044 1.189l4.066 4.068a6.413 6.413 0 0 1 5.51-3.135z" class="prefix__cls-4" data-name="Path 258" transform="translate(-50.332)"/>
    </g>
</svg>
