<svg xmlns="http://www.w3.org/2000/svg" width="320.943" height="292.566" viewBox="0 0 320.943 292.566">
    <defs>
        <radialGradient id="prefix__radial-gradient" cx=".483" cy=".502" r=".354" gradientTransform="matrix(.577 .816 -.768 .543 .603 -.196)" gradientUnits="objectBoundingBox">
            <stop offset="0" stop-color="#fff" stop-opacity="0"/>
            <stop offset="1" stop-color="#fff"/>
        </radialGradient>
        <style>
            .prefix__cls-1{fill:#f6f5ee}.prefix__cls-2{fill:#bfbeba}.prefix__cls-3{fill:#e8e8e4}
        </style>
    </defs>
    <g id="prefix__Group_122" data-name="Group 122" transform="translate(-10 -34)">
        <g id="prefix__Group_106" data-name="Group 106" transform="translate(10 34)">
            <g id="prefix__Group_105" data-name="Group 105" transform="translate(30.623 43.528)">
                <path id="prefix__Path_66" d="M2083.616 1041.294l-59.416 29.846 83.768 43.578 61.705-30.76z" class="prefix__cls-1" data-name="Path 66" transform="translate(-2012.939 -970.857)"/>
                <path id="prefix__Path_67" d="M2408.591 1204.818l-60.789 29.845 120.113 60.973-31.636-30.106 70.636-11.458z" class="prefix__cls-1" data-name="Path 67" transform="translate(-2241.97 -1086.593)"/>
                <path id="prefix__Path_68" d="M2084.864 1316.339l-86.422 54.753 10.165 6 191.976 9.246z" class="prefix__cls-1" data-name="Path 68" transform="translate(-1985.074 -1165.521)"/>
                <path id="prefix__Path_69" d="M2075.388 1189.712l-89.719 45.775v-90.818z" class="prefix__cls-1" data-name="Path 69" transform="translate(-1985.669 -1044.022)"/>
                <path id="prefix__Path_70" d="M2053 981.825l-63.9 32.775-.913-41.564 25.268-12.146z" class="prefix__cls-1" data-name="Path 70" transform="translate(-1987.448 -913.951)"/>
                <path id="prefix__Path_71" d="M2402.353 978.063s-49.071 26.61-49.8 26.366-84.959-42.235-84.959-42.235l49.56-26.366z" class="prefix__cls-1" data-name="Path 71" transform="translate(-2185.2 -896.214)"/>
                <path id="prefix__Path_72" d="M2783.865 1051.933l31.677-15.871v31.738z" class="prefix__cls-1" data-name="Path 72" transform="translate(-2550.595 -967.155)"/>
                <path id="prefix__Path_73" d="M2597.576 1123.138l49.56-24.413 36.559 18.554v50.535z" class="prefix__cls-1" data-name="Path 73" transform="translate(-2418.749 -1011.504)"/>
                <path id="prefix__Path_74" d="M2247 856.355l59.564-56.078h-171.377l-28.8 40.217 40.77 22.1 55.663-29.9z" class="prefix__cls-1" data-name="Path 74" transform="translate(-2071.106 -800.277)"/>
                <path id="prefix__Path_75" d="M2608.438 924.027l63.475-32.468 16.11 3.689 2.2 28.779-40.314 20.019z" class="prefix__cls-1" data-name="Path 75" transform="translate(-2426.436 -864.882)"/>
                <path id="prefix__Path_76" d="M2041.508 891.553l-19.653 10.5-19.9-9.886z" class="prefix__cls-1" data-name="Path 76" transform="translate(-1997.198 -864.878)"/>
                <path id="prefix__Path_77" d="M2000.614 925.19l-14.526 7.935v-15.259z" class="prefix__cls-1" data-name="Path 77" transform="translate(-1985.966 -883.501)"/>
                <path id="prefix__Path_78" d="M2771.669 904.229l-9.341 5-4.577-2.869 9.644-4.577z" class="prefix__cls-1" data-name="Path 78" transform="translate(-2532.113 -872.121)"/>
                <path id="prefix__Path_79" d="M2605.1 1382.8l10.539-5.9 4.716 2.95-9.886 5.554z" class="prefix__cls-1" data-name="Path 79" transform="translate(-2424.07 -1208.386)"/>
                <g id="prefix__Group_83" data-name="Group 83" transform="translate(68.398 90.557)">
                    <path id="prefix__Path_80" d="M2240.8 1110.141l-19.693 10.09 9.115 4.716 19.937-9.6z" class="prefix__cls-1" data-name="Path 80" transform="translate(-2220.698 -1110.141)"/>
                    <path id="prefix__Path_81" d="M2274.21 1126.5l.651 19.613-19.771 10.05v-19.652z" class="prefix__cls-2" data-name="Path 81" transform="translate(-2244.752 -1121.721)"/>
                    <path id="prefix__Path_82" d="M2219.712 1143.211v19.938l10.339 4.6-.362-19.439z" class="prefix__cls-3" data-name="Path 82" transform="translate(-2219.712 -1133.546)"/>
                </g>
                <g id="prefix__Group_84" data-name="Group 84" transform="translate(83.331 118.226)">
                    <path id="prefix__Path_83" d="M2285.334 1204.818l-14.526 7.243 14.526 7.165 14.486-7.2z" class="prefix__cls-1" data-name="Path 83" transform="translate(-2270.808 -1204.818)"/>
                    <path id="prefix__Path_84" d="M2335.27 1229.668v7l-14.568 7.483-.265-7.649 14.668-7.04z" class="prefix__cls-2" data-name="Path 84" transform="translate(-2305.933 -1222.259)"/>
                    <path id="prefix__Path_85" d="M2271 1229.933l-.2 7.207 14.77 7.346.163-7.487z" class="prefix__cls-3" data-name="Path 85" transform="translate(-2270.808 -1222.594)"/>
                </g>
                <g id="prefix__Group_85" data-name="Group 85" transform="translate(48.867 132.629)">
                    <path id="prefix__Path_86" d="M2172.25 1254.1l-19.368 9.439 9.685 5.208 19.856-9.928z" class="prefix__cls-1" data-name="Path 86" transform="translate(-2152.882 -1254.102)"/>
                    <path id="prefix__Path_87" d="M2206.464 1270.254v9.765l-19.328 10.172-.285-10.416z" class="prefix__cls-2" data-name="Path 87" transform="translate(-2176.924 -1265.534)"/>
                    <path id="prefix__Path_88" d="M2154.021 1287.016v10.116l9.88 4.924.162-9.969z" class="prefix__cls-3" data-name="Path 88" transform="translate(-2153.688 -1277.397)"/>
                </g>
                <g id="prefix__Group_86" data-name="Group 86" transform="translate(9.726 125.304)">
                    <path id="prefix__Path_89" d="M2019.517 1238.4l19.693-9.359 9.846 4.679-19.205 9.968z" class="prefix__cls-1" data-name="Path 89" transform="translate(-2019.351 -1229.039)"/>
                    <path id="prefix__Path_90" d="M2073.086 1244.5c0 .162.244 15.258.244 15.258l-19.857 9.523.523-14.708z" class="prefix__cls-3" data-name="Path 90" transform="translate(-2043.384 -1239.979)"/>
                    <path id="prefix__Path_91" d="M2019.111 1261.065l-.162 15.1 10.09 4.834.523-14.708z" class="prefix__cls-3" data-name="Path 91" transform="translate(-2018.949 -1251.706)"/>
                </g>
                <g id="prefix__Group_87" data-name="Group 87" transform="translate(4.394 158.998)">
                    <path id="prefix__Path_92" d="M2017.766 1344.331l-14.974 7.325 14.974 8.138 14.648-7.325z" class="prefix__cls-1" data-name="Path 92" transform="translate(-2002.183 -1344.331)"/>
                    <path id="prefix__Path_93" d="M2001.011 1369.595l-.305 8.362 15.136 7.69v-8.547z" class="prefix__cls-3" data-name="Path 93" transform="translate(-2000.705 -1362.212)"/>
                    <path id="prefix__Path_94" d="M2067.591 1372.171v7.274l-15.1 8.026v-8.545z" class="prefix__cls-2" data-name="Path 94" transform="translate(-2037.36 -1364.035)"/>
                </g>
                <g id="prefix__Group_88" data-name="Group 88" transform="translate(228.234 37.906)">
                    <path id="prefix__Path_95" d="M2783.7 929.981l-14.973 7.325 14.973 8.138 14.648-7.325z" class="prefix__cls-1" data-name="Path 95" transform="translate(-2768.112 -929.981)"/>
                    <path id="prefix__Path_96" d="M2766.938 955.248l-.306 8.362 15.137 7.69v-8.545z" class="prefix__cls-3" data-name="Path 96" transform="translate(-2766.632 -947.864)"/>
                    <path id="prefix__Path_97" d="M2833.523 957.827v7.273l-15.1 8.026v-8.544z" class="prefix__cls-2" data-name="Path 97" transform="translate(-2803.291 -949.689)"/>
                </g>
                <g id="prefix__Group_89" data-name="Group 89" transform="translate(83.327 154.113)">
                    <path id="prefix__Path_98" d="M2285.647 1327.616l-14.852 7.813 14.506 7.487 14.505-7.324z" class="prefix__cls-1" data-name="Path 98" transform="translate(-2270.796 -1327.616)"/>
                    <path id="prefix__Path_99" d="M2321.486 1361.44v9.419l14.647-7.018-.448-10.051z" class="prefix__cls-2" data-name="Path 99" transform="translate(-2306.672 -1346.141)"/>
                    <path id="prefix__Path_100" d="M2271.037 1354.752l-.229 10.136 14.506 6.652.3-9.155z" class="prefix__cls-3" data-name="Path 100" transform="translate(-2270.804 -1346.821)"/>
                </g>
                <g id="prefix__Group_90" data-name="Group 90" transform="translate(161.597 17.306)">
                    <path id="prefix__Path_101" d="M2553.467 859.495l-14.852 7.812 14.506 7.487 14.506-7.324z" class="prefix__cls-1" data-name="Path 101" transform="translate(-2538.616 -859.495)"/>
                    <path id="prefix__Path_102" d="M2589.293 893.33v9.424l14.648-7.019-.447-10.051z" class="prefix__cls-2" data-name="Path 102" transform="translate(-2574.483 -878.03)"/>
                    <path id="prefix__Path_103" d="M2538.844 886.631l-.229 10.136 14.506 6.652.3-9.154z" class="prefix__cls-3" data-name="Path 103" transform="translate(-2538.616 -878.701)"/>
                </g>
                <g id="prefix__Group_91" data-name="Group 91" transform="translate(34.056 71.273)">
                    <path id="prefix__Path_104" d="M2132.878 1049.28l-19.045 9.928-9.681-5.368 19.856-9.684z" class="prefix__cls-1" data-name="Path 104" transform="translate(-2103.581 -1044.156)"/>
                    <path id="prefix__Path_105" d="M2102.771 1076.793l-.569 20.263 10.254 4.76v-19.51z" class="prefix__cls-3" data-name="Path 105" transform="translate(-2102.202 -1067.255)"/>
                    <path id="prefix__Path_106" d="M2156.94 1060.6v19.992l-19.652 10.254.272-20.141z" class="prefix__cls-2" data-name="Path 106" transform="translate(-2127.034 -1055.794)"/>
                </g>
                <g id="prefix__Group_92" data-name="Group 92" transform="translate(127.397 51.577)">
                    <path id="prefix__Path_107" d="M2442.883 976.761c-1.831 1.221-19.9 9.4-19.9 9.4l9.644 5.371 19.286-9.155z" class="prefix__cls-1" data-name="Path 107" transform="translate(-2422.58 -976.761)"/>
                    <path id="prefix__Path_108" d="M2475.267 995.973v19.527l-19.287 9.523V1005.5z" class="prefix__cls-2" data-name="Path 108" transform="translate(-2445.93 -990.358)"/>
                    <path id="prefix__Path_109" d="M2422 1008.92l-.406 20.141 10.05 5.127v-19.9z" class="prefix__cls-3" data-name="Path 109" transform="translate(-2421.593 -999.522)"/>
                </g>
                <g id="prefix__Group_93" data-name="Group 93" transform="translate(161.657 66.347)">
                    <path id="prefix__Path_110" d="M2559.278 1027.3l-18.921 9.523 9.461 5.615 18.981-10.131z" class="prefix__cls-1" data-name="Path 110" transform="translate(-2539.908 -1027.301)"/>
                    <path id="prefix__Path_111" d="M2593.59 1043.591v19.938l-19.124 9.847V1053.7z" class="prefix__cls-2" data-name="Path 111" transform="translate(-2564.048 -1038.83)"/>
                    <path id="prefix__Path_112" d="M2539.27 1059.88l-.448 20.3 9.927 4.716v-20.014z" class="prefix__cls-3" data-name="Path 112" transform="translate(-2538.822 -1050.359)"/>
                </g>
                <g id="prefix__Group_94" data-name="Group 94" transform="translate(117.507 90.557)">
                    <path id="prefix__Path_113" d="M2407.73 1110.141s-20.263 9.969-19.978 9.969 10.01 5.33 10.172 5.25 19.288-9.847 19.288-9.847z" class="prefix__cls-1" data-name="Path 113" transform="translate(-2387.75 -1110.141)"/>
                    <path id="prefix__Path_114" d="M2421.6 1137.851v19.765l20.262-9.886v-19.779z" class="prefix__cls-2" data-name="Path 114" transform="translate(-2411.705 -1122.746)"/>
                    <path id="prefix__Path_115" d="M2387.767 1145.5v20.019l9.889 4.516v-19.765z" class="prefix__cls-3" data-name="Path 115" transform="translate(-2387.762 -1135.169)"/>
                </g>
                <g id="prefix__Group_95" data-name="Group 95" transform="translate(193.069 175.841)">
                    <path id="prefix__Path_116" d="M2646.308 1407.741l5.37 2.848 9.237-5.615-4.11-3.01z" class="prefix__cls-1" data-name="Path 116" transform="translate(-2646.308 -1401.963)"/>
                    <path id="prefix__Path_117" d="M2647.187 1422.184v4.421l5.216 2.6-.1-4.313z" class="prefix__cls-3" data-name="Path 117" transform="translate(-2646.93 -1416.275)"/>
                    <path id="prefix__Path_118" d="M2673.921 1412.2v5.859l-9.135 4.089-.1-4.313z" class="prefix__cls-2" data-name="Path 118" transform="translate(-2659.315 -1409.206)"/>
                </g>
                <g id="prefix__Group_96" data-name="Group 96" transform="translate(230.177 177.631)">
                    <path id="prefix__Path_119" d="M2787.6 1411.589l-9.115 5.045-5.208-2.523 11.148-6.022z" class="prefix__cls-1" data-name="Path 119" transform="translate(-2773.28 -1408.089)"/>
                    <path id="prefix__Path_120" d="M2800.578 1419.921l.362 5.494-9.764 4.577-.082-4.988z" class="prefix__cls-2" data-name="Path 120" transform="translate(-2785.888 -1416.463)"/>
                    <path id="prefix__Path_121" d="M2773.283 1428.695v5.676l5.29 1.831-.082-4.988z" class="prefix__cls-3" data-name="Path 121" transform="translate(-2773.282 -1422.673)"/>
                </g>
                <g id="prefix__Group_97" data-name="Group 97" transform="translate(181.127 142.781)">
                    <path id="prefix__Path_122" d="M2619.769 1292.34l-9.115 5.045-5.208-2.523 11.149-6.022z" class="prefix__cls-1" data-name="Path 122" transform="translate(-2605.445 -1288.84)"/>
                    <path id="prefix__Path_123" d="M2632.736 1300.673l.363 5.493-9.766 4.577-.081-4.988z" class="prefix__cls-2" data-name="Path 123" transform="translate(-2618.048 -1297.215)"/>
                    <path id="prefix__Path_124" d="M2605.443 1309.446v5.677l5.29 1.831-.082-4.988z" class="prefix__cls-3" data-name="Path 124" transform="translate(-2605.443 -1303.424)"/>
                </g>
                <g id="prefix__Group_98" data-name="Group 98" transform="translate(48.297 192.014)">
                    <path id="prefix__Path_125" d="M2165.253 1460.8l-9.115 5.045-5.208-2.522 11.148-6.022z" class="prefix__cls-1" data-name="Path 125" transform="translate(-2150.93 -1457.304)"/>
                    <path id="prefix__Path_126" d="M2178.236 1469.137l.363 5.493-9.762 4.582-.082-4.988z" class="prefix__cls-2" data-name="Path 126" transform="translate(-2163.546 -1465.679)"/>
                    <path id="prefix__Path_127" d="M2150.933 1477.91v5.677l5.29 1.831-.081-4.989z" class="prefix__cls-3" data-name="Path 127" transform="translate(-2150.932 -1471.888)"/>
                </g>
                <g id="prefix__Group_99" data-name="Group 99" transform="translate(12.809 57.191)">
                    <path id="prefix__Path_128" d="M2043.823 999.473l-9.115 5.045-5.208-2.523 11.149-6.022z" class="prefix__cls-1" data-name="Path 128" transform="translate(-2029.5 -995.973)"/>
                    <path id="prefix__Path_129" d="M2056.808 1007.809l.363 5.493-9.76 4.579-.082-4.988z" class="prefix__cls-2" data-name="Path 129" transform="translate(-2042.118 -1004.35)"/>
                    <path id="prefix__Path_130" d="M2029.5 1016.579v5.677l5.289 1.831-.082-4.988z" class="prefix__cls-3" data-name="Path 130" transform="translate(-2029.502 -1010.557)"/>
                </g>
                <g id="prefix__Group_100" data-name="Group 100" transform="translate(205.5 80.873)">
                    <path id="prefix__Path_131" d="M2689.881 1084.118l14.648-7.114 24.414 12.7-9.523 5-9.276-5.737-5.86 2.929z" class="prefix__cls-1" data-name="Path 131" transform="translate(-2689.577 -1077.004)"/>
                    <path id="prefix__Path_132" d="M2689.146 1103.736l-.3 34.088 15.015 7.659-.3-35.522z" class="prefix__cls-3" data-name="Path 132" transform="translate(-2688.841 -1095.924)"/>
                    <path id="prefix__Path_133" d="M2744.868 1116.891l-.549 35.643-4.822 2.258-.3-34.671z" class="prefix__cls-2" data-name="Path 133" transform="translate(-2724.483 -1105.234)"/>
                    <path id="prefix__Path_134" d="M2757.081 1119.191l9.684 5.615v34.24l-10.051-4.883z" class="prefix__cls-3" data-name="Path 134" transform="translate(-2736.879 -1106.862)"/>
                    <path id="prefix__Path_135" d="M2800.584 1121.487l1.1 32.816-10.579 6.367v-34.24z" class="prefix__cls-2" data-name="Path 135" transform="translate(-2761.218 -1108.487)"/>
                </g>
                <g id="prefix__Group_101" data-name="Group 101" transform="translate(2.258 110.169)">
                    <path id="prefix__Path_136" d="M2013.607 1182.541c-.244 0-9.523 5.126-9.523 5.126l-9.928-5.47 9.725-4.946z" class="prefix__cls-1" data-name="Path 136" transform="translate(-1993.934 -1177.251)"/>
                    <path id="prefix__Path_137" d="M2026.6 1199.641l.243 4.716 10.01-4.716v-5.472z" class="prefix__cls-3" data-name="Path 137" transform="translate(-2016.898 -1189.225)"/>
                    <path id="prefix__Path_138" d="M1993.4 1194.17l10.067 5.472.244 4.716-10.091-4.716z" class="prefix__cls-3" data-name="Path 138" transform="translate(-1993.396 -1189.225)"/>
                </g>
                <g id="prefix__Group_102" data-name="Group 102" transform="translate(80.819 24.36)">
                    <path id="prefix__Path_139" d="M2282.423 888.919c-.243 0-9.522 5.127-9.522 5.127l-9.928-5.471 9.724-4.946z" class="prefix__cls-1" data-name="Path 139" transform="translate(-2262.751 -883.63)"/>
                    <path id="prefix__Path_140" d="M2295.418 906.011l.244 4.716 10.009-4.716v-5.471z" class="prefix__cls-3" data-name="Path 140" transform="translate(-2285.714 -895.598)"/>
                    <path id="prefix__Path_141" d="M2262.212 900.54l10.067 5.471.244 4.716-10.091-4.716z" class="prefix__cls-3" data-name="Path 141" transform="translate(-2262.212 -895.598)"/>
                </g>
                <g id="prefix__Group_103" data-name="Group 103" transform="translate(108.03 36.318)">
                    <path id="prefix__Path_142" d="M2369.849 924.55l-14.525 7.69 14.525 7.569 14.892-7.08z" class="prefix__cls-1" data-name="Path 142" transform="translate(-2355.323 -924.55)"/>
                    <path id="prefix__Path_143" d="M2404.323 959.591s-.427 7.141-.244 7.385 15.136-7.08 15.136-7.08-.02-7.665-.3-7.385-14.592 7.08-14.592 7.08z" class="prefix__cls-2" data-name="Path 143" transform="translate(-2389.797 -944.335)"/>
                    <path id="prefix__Path_144" d="M2355.321 950.866l14.525 7.569-.245 7.385-13.732-6.287z" class="prefix__cls-3" data-name="Path 144" transform="translate(-2355.321 -943.175)"/>
                </g>
                <g id="prefix__Group_104" data-name="Group 104" transform="translate(141.953 132.233)">
                    <path id="prefix__Path_145" d="M2487.387 1252.749l-14.037 7.383 13.151 7.934 14.922-7.659z" class="prefix__cls-1" data-name="Path 145" transform="translate(-2472.781 -1252.749)"/>
                    <path id="prefix__Path_146" d="M2519.24 1286.615l-.885 14.4 15.838-7.2v-14.861z" class="prefix__cls-2" data-name="Path 146" transform="translate(-2504.632 -1271.297)"/>
                    <path id="prefix__Path_147" d="M2471.971 1278.956l-.57 15.105 14.607 7.325v-14.771z" class="prefix__cls-3" data-name="Path 147" transform="translate(-2471.401 -1271.297)"/>
                </g>
            </g>
            <path id="prefix__Path_148" d="M2041.356 651.334a160.471 160.471 0 0 1 160.472 160.471c0 88.625-79.047 132.094-167.672 132.094s-153.271-43.469-153.271-132.094a160.471 160.471 0 0 1 160.471-160.471z" data-name="Path 148" transform="translate(-1880.885 -651.334)"/>
        </g>
        <g id="prefix__Group_117" data-name="Group 117" transform="translate(109.048 130.036)">
            <path id="prefix__Path_66-2" d="M587.611 889.021a18.253 18.253 0 0 0-18.235 18.235c0 12.64 16.46 29.245 17.159 29.948a1.527 1.527 0 0 0 2.152 0c.7-.7 17.159-17.307 17.159-29.948a18.253 18.253 0 0 0-18.235-18.235z" data-name="Path 66" transform="translate(-569.376 -889.021)" style="fill:#0082f1"/>
            <path id="prefix__Path_66-3" d="M610.543 916.825a1.912 1.912 0 0 1-1.912 1.912h-1.908v9.54a1.908 1.908 0 0 1-1.908 1.908h-3.333v-7.1H596.7v7.1h-3.337a1.908 1.908 0 0 1-1.908-1.908v-9.54h-1.905a1.91 1.91 0 0 1-1.192-3.4l9.542-7.637a1.9 1.9 0 0 1 2.384 0l9.54 7.633a1.907 1.907 0 0 1 .719 1.492z" data-name="Path 66" transform="translate(-580.857 -900.501)" style="fill:#fafafa"/>
        </g>
    </g>
</svg>
