<svg xmlns="http://www.w3.org/2000/svg" width="44.207" height="40.406" viewBox="0 0 44.207 40.406">
    <path id="prefix___2258861" d="M34.688 0H4.175A4.179 4.179 0 0 0 0 4.175v20.038a4.179 4.179 0 0 0 4.175 4.175h9.831a.381.381 0 0 1 .305.154l3.589 4.863a1.881 1.881 0 0 0 1.518.771h.009a1.881 1.881 0 0 0 1.516-.757l3.667-4.879a.381.381 0 0 1 .3-.152h9.775a4.179 4.179 0 0 0 4.175-4.175V4.175A4.179 4.179 0 0 0 34.688 0zm1.9 24.213a1.891 1.891 0 0 1-.072.517l-11.7-10.254 11.77-9.766zm-1.9-21.936a1.885 1.885 0 0 1 .953.258L20.647 14.978a1.9 1.9 0 0 1-2.424 0l-15-12.446a1.885 1.885 0 0 1 .949-.255zM2.349 24.731a1.891 1.891 0 0 1-.072-.517V4.7l11.773 9.77zm20.44 2.441l-3.362 4.472-3.284-4.453a2.666 2.666 0 0 0-2.138-1.08H4.229l11.6-10.164.944.784a4.177 4.177 0 0 0 5.332 0l.941-.781 11.588 10.161h-9.721a2.67 2.67 0 0 0-2.124 1.06z" data-name="2258861" transform="matrix(.985 -.174 .174 .985 0 6.749)" style="fill:#fff"/>
</svg>
